<svg version="1.2" xmlns="http://www.w3.org/2000/svg" viewBox="0 0 84 87" width="84" height="87">
	<title>logo-viacredi-svg</title>
	<defs>
		<linearGradient id="g1" x1="20.6" y1="61.3" x2="76.7" y2="61.3" gradientUnits="userSpaceOnUse">
			<stop offset="0" stop-color="#00a9ce"/>
			<stop offset=".4" stop-color="#00a7cb"/>
			<stop offset=".7" stop-color="#009fc3"/>
			<stop offset=".9" stop-color="#0091b5"/>
			<stop offset="1" stop-color="#0083a6"/>
		</linearGradient>
		<linearGradient id="g2" x1="29" y1="21.8" x2="78.9" y2="21.8" gradientUnits="userSpaceOnUse">
			<stop offset="0" stop-color="#ffa300"/>
			<stop offset=".4" stop-color="#fca200"/>
			<stop offset=".6" stop-color="#f49d00"/>
			<stop offset=".7" stop-color="#e69600"/>
			<stop offset=".9" stop-color="#d28b00"/>
			<stop offset="1" stop-color="#bd8000"/>
		</linearGradient>
		<linearGradient id="g3" x1="0" y1="36.4" x2="29" y2="36.4" gradientUnits="userSpaceOnUse">
			<stop offset="0" stop-color="#00b140"/>
			<stop offset=".4" stop-color="#00ae40"/>
			<stop offset=".6" stop-color="#01a63e"/>
			<stop offset=".8" stop-color="#02983b"/>
			<stop offset="1" stop-color="#038437"/>
			<stop offset="1" stop-color="#038237"/>
		</linearGradient>
	</defs>
	<style>
		.s0 { fill: #ffffff } 
		.s1 { fill: url(#g1) } 
		.s2 { fill: url(#g2) } 
		.s3 { fill: #886b25 } 
		.s4 { fill: url(#g3) } 
		.s5 { fill: #007d8a } 
		.s6 { fill: #007041 } 
	</style>
	<path id="Layer" fill-rule="evenodd" class="s0" d="m59.1 44.2c0.3 0.6 0.4 1.2 0.4 1.8-0.1 0.7-0.3 1.3-0.7 1.8-0.3 0.5-0.8 1-1.4 1.2-0.6 0.3-1.2 0.4-1.8 0.4h-3.4v4.2q0 0.6-0.2 1.1-0.2 0.5-0.6 0.9-0.4 0.4-0.9 0.6-0.5 0.2-1.1 0.2h-1q-0.5 0-1-0.2-0.5-0.2-0.9-0.6-0.4-0.4-0.6-0.9-0.2-0.5-0.2-1.1v-2.1q0 0 0 0 0 0 0-0.1 0 0 0 0 0 0 0-0.1v-2h-7.4v2q0 0.1 0 0.1 0 0 0 0 0 0.1 0 0.1 0 0 0 0v2.1q0 0.6-0.2 1.1-0.2 0.5-0.6 0.9-0.4 0.4-0.9 0.6-0.5 0.2-1.1 0.2h-1q-0.5 0-1.1-0.2-0.5-0.2-0.8-0.6-0.4-0.4-0.6-0.9-0.3-0.5-0.3-1.1v-4.2h-3.3c-0.7 0-1.3-0.1-1.9-0.4-0.5-0.2-1-0.7-1.4-1.2-0.3-0.5-0.6-1.1-0.6-1.7-0.1-0.7 0.1-1.3 0.4-1.9l7.6-18.7c0.7-1.7 1.3-3 2.4-3 1.2 0 1.7 1.4 2.4 3l4.6 10.8 4.6-10.8c0.7-1.7 1.3-3 2.4-3 1.2 0 1.7 1.3 2.5 3l7.6 18.7zm-20.6 2.3q-0.1-0.3-0.1-0.7 0-0.4 0.1-0.8 0.1-0.4 0.3-0.8l2-5.3-5.3-12.6q-0.3-0.7-0.6-1.1c-0.2 0.4-0.4 0.9-0.5 1.2l-7.6 18.6q-0.2 0.4-0.2 0.8 0 0.5 0.2 0.9 0.3 0.3 0.7 0.5 0.4 0.2 0.9 0.1h5.4v6.3q0 0.2 0 0.3 0.1 0.1 0.2 0.2 0.1 0.1 0.2 0.2 0.2 0 0.3 0h1q0.1 0 0.3 0 0.1-0.1 0.2-0.2 0.1-0.1 0.1-0.2 0.1-0.1 0.1-0.3v-6.3h2.5q-0.1-0.4-0.2-0.8zm4.9-0.3q0-0.2 0-0.4 0-0.2 0-0.4 0-0.2-0.1-0.4l-1.3-3.3-1.3 3.3q-0.1 0.2-0.1 0.4-0.1 0.2-0.1 0.4 0 0.2 0.1 0.4 0 0.2 0.1 0.4 0.2 0.3 0.5 0.5 0.4 0.2 0.8 0.2 0.3 0 0.7-0.2 0.3-0.2 0.5-0.5 0.1-0.2 0.2-0.4zm13.7 0.5q0.1-0.2 0.2-0.5 0-0.2 0-0.4 0-0.2 0-0.4-0.1-0.2-0.2-0.4l-7.6-18.7c0-0.2-0.3-0.7-0.5-1.1q-0.2 0.4-0.5 1.1l-5.4 12.6 2.1 5.3q0.1 0.4 0.2 0.8 0.1 0.4 0.1 0.8 0 0.4-0.1 0.8-0.1 0.3-0.2 0.7h2.5v6.3q0 0.1 0.1 0.3 0 0.1 0.1 0.2 0.1 0.1 0.2 0.1 0.2 0.1 0.3 0.1h1q0.1 0 0.3-0.1 0.1 0 0.2-0.1 0.1-0.1 0.1-0.2 0.1-0.2 0.1-0.3v-6.3h5.4q0.2 0 0.5 0 0.2-0.1 0.4-0.2 0.2 0 0.4-0.2 0.1-0.1 0.3-0.3z"/>
	<path id="Layer" class="s1" d="m67.3 55.6q1.9-1.6 3.6-3.5 1.7-1.9 3.1-4 1.3-2.2 2.3-4.5 0.1 0.5 0.2 1 0 0.5 0 1.1 0.1 0.5 0.1 1 0 0.5 0 1c0 6.5-2.1 12.9-5.9 18.2-3.8 5.3-9.1 9.2-15.3 11.3-6.2 2.1-12.8 2.2-19.1 0.3-6.2-1.8-11.7-5.6-15.7-10.8q2.2 0.8 4.6 1.3 2.3 0.4 4.7 0.5 2.4 0.1 4.7-0.1 2.4-0.3 4.7-0.9c0.8 0.1 1.7 0.1 2.6 0.1q3 0 5.9-0.6 2.9-0.6 5.7-1.8 2.7-1.1 5.1-2.9 2.5-1.7 4.5-3.9 2.2-1.2 4.2-2.8z"/>
	<path id="Layer" class="s2" d="m43.2 8.4q-1.9-0.7-3.9-1.3-1.9-0.5-4-0.7-2-0.3-4-0.3c-0.8 0-1.5 0.1-2.2 0.1 5.5-4.1 12.2-6.3 19.1-6.1 6.8 0.1 13.5 2.4 18.8 6.7 5.4 4.2 9.3 10.2 10.9 16.8 1.7 6.6 1.2 13.7-1.5 20q-0.3-2.5-1-4.9-0.8-2.4-1.8-4.6-1.1-2.2-2.5-4.3-1.5-2-3.2-3.8-1.5-3.1-3.7-5.7-2.2-2.7-5-4.7-2.7-2.1-5.9-3.4-3.1-1.4-6.5-2-1.8-1-3.6-1.8z"/>
	<path id="Layer" class="s3" d="m70.7 35.4q-0.2-1.6-0.6-3.2-0.4-1.6-0.9-3.2-0.6-1.5-1.3-3 1.7 1.8 3.2 3.8 1.4 2.1 2.5 4.3 1 2.2 1.8 4.6 0.7 2.4 1 4.9-1 2.3-2.4 4.5-1.4 2.1-3 4-1.7 1.9-3.7 3.5-2 1.6-4.2 2.8 1.8-2 3.3-4.3 1.4-2.3 2.4-4.8 1-2.5 1.5-5.2 0.6-2.7 0.5-5.4 0.1-1.6-0.1-3.3z"/>
	<path id="Layer" class="s4" d="m14.2 47.7q0 2.6 0.4 5.1 0.4 2.5 1.3 5 0.8 2.4 2 4.6 1.2 2.3 2.8 4.3c-6.8-2.4-12.5-7.1-16.2-13.2-3.7-6.2-5.1-13.4-4.2-20.5 1-7.1 4.4-13.6 9.7-18.5 5.2-4.9 11.9-7.8 19.1-8.3q-2.1 1.5-4 3.4-1.8 2-3.3 4.1-1.5 2.2-2.6 4.6-1.1 2.5-1.8 5-1.6 2.6-2.7 5.5-1 2.9-1.4 6-0.5 3-0.2 6.1 0.2 3.1 1.1 6c0 0.3 0 0.5 0 0.8z"/>
	<path id="Layer" class="s5" d="m39.3 67.5q-2.3 0.6-4.6 0.9-2.4 0.2-4.8 0.1-2.4-0.1-4.7-0.5-2.3-0.5-4.6-1.3-1.5-2-2.7-4.3-1.2-2.3-2.1-4.7-0.8-2.4-1.2-4.9-0.4-2.5-0.4-5.1 0-0.4 0-0.8c0.8 2.8 2 5.4 3.6 7.8 1.6 2.4 3.5 4.5 5.8 6.4 2.2 1.8 4.7 3.3 7.4 4.4 2.6 1.1 5.4 1.8 8.3 2z"/>
	<path id="Layer" class="s6" d="m19.2 18.4q1.1-2.5 2.6-4.7 1.5-2.1 3.3-4.1 1.8-1.9 3.9-3.5c0.8 0 1.5 0 2.3 0q2 0 4 0.2 2 0.3 4 0.8 2 0.6 3.8 1.3 1.9 0.8 3.7 1.8c-2.8-0.5-5.7-0.5-8.5-0.2-2.8 0.4-5.6 1.2-8.2 2.3-2.6 1.2-5 2.7-7.1 4.6-2.2 1.8-4 4-5.6 6.4q0.7-2.5 1.8-4.9z"/>
</svg>